# 3ds Max Wavefront OBJ Exporter v0.97b - (c)2007 guruware
# File Created: 20.04.2013 20:50:41

#
# object brick_window_2
#

v  128.0000 0.0000 -16.0000
v  128.0000 0.0000 16.0000
v  0.0000 0.0000 16.0000
v  0.0000 0.0000 -16.0000
v  128.0000 256.0000 -16.0000
v  128.0000 256.0000 16.0000
v  128.0000 64.2133 -16.0000
v  0.0000 256.0000 -16.0000
v  0.0000 256.0000 16.0000
v  15.9744 192.0958 16.0000
v  112.0256 192.0958 16.0000
v  112.0256 64.2133 16.0000
v  15.9744 64.2133 16.0000
v  112.0256 192.0958 -16.0000
v  15.9744 192.0958 -16.0000
v  15.9744 64.2133 -16.0000
v  112.0256 64.2133 -16.0000
v  16.0000 192.0000 1.0000
v  16.0000 64.0000 1.0000
v  112.0000 64.0000 1.0000
v  112.0000 192.0000 1.0000
v  112.0000 64.0000 -1.0000
v  16.0000 64.0000 -1.0000
v  16.0000 192.0000 -1.0000
v  112.0000 192.0000 -1.0000
# 25 vertices

vn 0.0000 -1.0000 -0.0000
vn 1.0000 0.0000 -0.0000
vn 0.0000 1.0000 -0.0000
vn -1.0000 0.0000 -0.0000
vn 0.0000 -0.0000 1.0000
vn -0.0000 -0.0000 1.0000
vn -0.0000 0.0000 -1.0000
vn 0.0000 0.0000 -1.0000
# 8 vertex normals

vt 0.3750 0.9384 0.0000
vt 0.3750 1.0000 0.0000
vt 0.1250 1.0000 0.0000
vt 0.1250 0.9384 0.0000
vt 0.3131 1.0000 0.0000
vt 0.3131 0.5000 0.0000
vt 0.3750 0.6254 0.0000
vt 0.1250 0.5616 0.0000
vt 0.1250 0.5000 0.0000
vt 0.3750 0.5000 0.0000
vt 0.3750 0.5616 0.0000
vt 0.1869 0.5000 0.0000
vt 0.1869 1.0000 0.0000
vt 0.1562 0.8752 0.0000
vt 0.3438 0.8752 0.0000
vt 0.3438 0.6254 0.0000
vt 0.1562 0.6254 0.0000
vt 0.3750 0.8752 0.0000
vt 0.3131 0.6254 0.0000
vt 0.3131 0.8752 0.0000
vt 0.1250 0.6254 0.0000
vt 0.1250 0.8752 0.0000
vt 0.1869 0.8752 0.0000
vt 0.1869 0.6254 0.0000
vt 0.3438 0.9384 0.0000
vt 0.1562 0.9384 0.0000
vt 0.1562 1.0000 0.0000
vt 0.3438 1.0000 0.0000
vt 0.1562 0.5616 0.0000
vt 0.3438 0.5616 0.0000
vt 0.3438 0.5000 0.0000
vt 0.1562 0.5000 0.0000
vt 0.8125 0.3438 0.0000
vt 0.8125 0.0938 0.0000
vt 1.0000 0.0938 0.0000
vt 1.0000 0.3438 0.0000
# 36 texture coords

g brick_window_2
s 2
f 1/1/1 2/2/1 3/3/1 4/4/1 
s 4
f 5/2/2 6/5/2 2/6/2 7/7/2 
s 2
f 8/8/3 9/9/3 6/10/3 5/11/3 
s 4
f 4/9/4 3/12/4 9/13/4 8/3/4 
s 1
f 9/3/5 10/14/5 11/15/6 6/2/6 
f 2/10/6 12/16/6 13/17/5 3/9/5 
s 4
f 2/6/2 1/10/2 7/7/2 
s 1
f 5/2/7 14/15/7 15/14/8 8/3/8 
f 4/9/7 16/17/7 17/16/8 1/10/8 
f 9/3/5 3/9/5 13/17/5 10/14/5 
f 2/10/6 6/2/6 11/15/6 12/16/6 
f 5/2/7 7/7/8 17/16/8 14/15/7 
f 4/9/7 8/3/8 15/14/8 16/17/7 
f 17/16/8 7/7/8 1/10/8 
s 4
f 14/18/4 17/7/4 12/19/4 11/20/4 
f 16/21/2 15/22/2 10/23/2 13/24/2 
s 2
f 17/25/3 16/26/3 13/27/3 12/28/3 
f 15/29/1 14/30/1 11/31/1 10/32/1 
s 1
f 18/33/5 19/34/5 20/35/5 21/36/5 
f 22/35/8 23/34/8 24/33/8 25/36/8 
# 18 polygons - 2 triangles

