# 3ds Max Wavefront OBJ Exporter v0.97b - (c)2007 guruware
# File Created: 20.04.2013 20:46:13

#
# object concrete_double_window
#

v  256.0000 0.0000 -16.0000
v  256.0000 0.0000 16.0000
v  0.0000 0.0000 16.0000
v  0.0000 0.0000 -16.0000
v  256.0000 256.0000 -16.0000
v  256.0000 256.0000 16.0000
v  0.0000 256.0000 -16.0000
v  0.0000 256.0000 16.0000
v  24.6122 195.0437 16.0000
v  231.8422 195.0437 16.0000
v  231.8422 60.9562 16.0000
v  24.6122 60.9562 16.0000
v  231.8422 195.0437 -16.0000
v  24.6122 195.0437 -16.0000
v  24.6122 60.9562 -16.0000
v  231.8422 60.9562 -16.0000
v  24.4607 195.0437 1.8230
v  24.4607 60.9551 1.8230
v  128.1514 60.9551 1.8230
v  128.1514 195.0437 1.8230
v  128.1514 60.9551 -0.0673
v  24.4607 60.9551 -0.0673
v  24.4607 195.0437 -0.0673
v  128.1514 195.0437 -0.0673
v  128.1515 195.0437 1.8230
v  128.1515 60.9551 1.8230
v  231.8422 60.9551 1.8230
v  231.8422 195.0437 1.8230
v  231.8422 60.9551 -0.0673
v  128.1515 60.9551 -0.0673
v  128.1515 195.0437 -0.0673
v  231.8422 195.0437 -0.0673
# 32 vertices

vn 0.0000 -1.0000 -0.0000
vn 1.0000 0.0000 -0.0000
vn 0.0000 1.0000 -0.0000
vn -1.0000 0.0000 -0.0000
vn 0.0000 -0.0000 1.0000
vn -0.0000 -0.0000 1.0000
vn -0.0000 0.0000 -1.0000
vn 0.0000 0.0000 -1.0000
vn -0.0000 -1.0000 -0.0000
# 9 vertex normals

vt 1.0000 0.5001 0.0000
vt 1.0000 0.5626 0.0000
vt 0.5000 0.5626 0.0000
vt 0.5000 0.5001 0.0000
vt 1.0000 1.0001 0.0000
vt 0.9375 1.0001 0.0000
vt 0.9375 0.5000 0.0000
vt 1.0000 0.5000 0.0000
vt 0.5000 1.0000 0.0000
vt 0.5000 0.9375 0.0000
vt 1.0000 0.9375 0.0000
vt 1.0000 1.0000 0.0000
vt 0.5000 0.5000 0.0000
vt 0.5625 0.5000 0.0000
vt 0.5625 1.0001 0.0000
vt 0.5000 1.0001 0.0000
vt 0.5481 0.8810 0.0000
vt 0.9528 0.8810 0.0000
vt 0.9528 0.6191 0.0000
vt 0.5481 0.6191 0.0000
vt 1.0000 0.8810 0.0000
vt 1.0000 0.6191 0.0000
vt 0.9375 0.6191 0.0000
vt 0.9375 0.8810 0.0000
vt 0.5000 0.6191 0.0000
vt 0.5000 0.8810 0.0000
vt 0.5625 0.8810 0.0000
vt 0.5625 0.6191 0.0000
vt 0.9528 0.5001 0.0000
vt 0.5480 0.5001 0.0000
vt 0.5480 0.5626 0.0000
vt 0.9528 0.5626 0.0000
vt 0.5480 1.0000 0.0000
vt 0.9528 1.0000 0.0000
vt 0.9528 0.9375 0.0000
vt 0.5480 0.9375 0.0000
vt 0.8125 0.3438 0.0000
vt 0.8125 0.0938 0.0000
vt 1.0000 0.0938 0.0000
vt 1.0000 0.3438 0.0000
# 40 texture coords

g concrete_double_window
s 2
f 1/1/1 2/2/1 3/3/1 4/4/1 
s 4
f 5/5/2 6/6/2 2/7/2 1/8/2 
s 2
f 7/9/3 8/10/3 6/11/3 5/12/3 
s 4
f 4/13/4 3/14/4 8/15/4 7/16/4 
s 1
f 8/9/5 9/17/5 10/18/6 6/12/6 
f 2/8/6 11/19/6 12/20/5 3/13/5 
f 5/12/7 13/18/7 14/17/8 7/9/8 
f 4/13/7 15/20/7 16/19/8 1/8/8 
f 8/9/5 3/13/5 12/20/5 9/17/5 
f 2/8/6 6/12/6 10/18/6 11/19/6 
f 5/12/7 1/8/8 16/19/8 13/18/7 
f 4/13/7 7/9/8 14/17/8 15/20/7 
s 4
f 13/21/4 16/22/4 11/23/4 10/24/4 
f 15/25/2 14/26/2 9/27/2 12/28/2 
s 2
f 16/29/3 15/30/3 12/31/3 11/32/3 
f 14/33/9 13/34/9 10/35/9 9/36/9 
s 1
f 17/37/5 18/38/5 19/39/5 20/40/5 
f 21/39/8 22/38/8 23/37/8 24/40/8 
f 25/37/5 26/38/5 27/39/5 28/40/5 
f 29/39/8 30/38/8 31/37/8 32/40/8 
# 20 polygons

