# 3ds Max Wavefront OBJ Exporter v0.97b - (c)2007 guruware
# File Created: 20.04.2013 20:45:21

#
# object concrete_door
#

v  256.0000 256.0000 -16.0000
v  256.0000 256.0000 16.0000
v  256.0000 0.0000 16.0000
v  256.0000 0.0000 -16.0000
v  0.0000 256.0000 -16.0000
v  0.0000 256.0000 16.0000
v  208.0000 176.0087 -16.0000
v  48.0000 176.0087 -16.0000
v  208.0000 176.0087 16.0000
v  208.0000 0.0000 16.0000
v  208.0000 0.0000 -16.0000
v  0.0000 0.0000 16.0000
v  0.0000 0.0000 -16.0000
v  48.0000 0.0000 -16.0000
v  48.0000 0.0000 16.0000
v  48.0000 176.0087 16.0000
v  130.0532 170.6588 4.9996
v  128.1119 176.0000 4.9996
v  126.1705 170.6588 4.9996
v  48.0000 176.0000 4.9996
v  52.4000 170.6588 4.9996
v  126.1705 0.0000 2.9996
v  115.1050 69.7112 2.9996
v  102.7668 69.7112 2.9996
v  52.4000 0.0000 2.9996
v  203.6000 170.6588 4.9996
v  208.0000 176.0000 4.9996
v  203.6000 0.0000 2.9996
v  152.3272 69.7112 2.9996
v  140.3178 69.7112 2.9996
v  130.0532 0.0000 2.9996
v  48.0000 0.0000 4.9996
v  52.4000 0.0000 4.9996
v  126.1705 170.6588 2.9996
v  52.4000 170.6588 2.9996
v  102.7668 155.7002 2.9996
v  115.1050 155.7002 2.9996
v  203.6000 170.6588 2.9996
v  130.0532 170.6588 2.9996
v  140.3178 155.7002 2.9996
v  152.3272 155.7002 2.9996
v  203.6000 0.0000 4.9996
v  208.0000 0.0000 4.9996
v  130.0532 170.6588 3.9996
v  126.1705 170.6588 3.9996
v  126.1705 0.0000 3.9996
v  130.0532 0.0000 3.9996
v  113.1050 153.7002 0.9996
v  104.7668 153.7002 0.9996
v  104.7668 71.7112 0.9996
v  113.1050 71.7112 0.9996
v  150.3272 153.7002 0.9996
v  142.3178 153.7002 0.9996
v  142.3178 71.7112 0.9996
v  150.3272 71.7112 0.9996
v  130.0532 170.6588 -4.9996
v  126.1705 170.6588 -4.9996
v  128.1119 176.0000 -4.9996
v  52.4000 170.6588 -4.9996
v  48.0000 176.0000 -4.9996
v  126.1705 0.0000 -2.9996
v  52.4000 0.0000 -2.9996
v  102.7668 69.7112 -2.9996
v  115.1050 69.7112 -2.9996
v  203.6000 170.6588 -4.9996
v  208.0000 176.0000 -4.9996
v  203.6000 0.0000 -2.9996
v  130.0532 0.0000 -2.9996
v  140.3178 69.7112 -2.9996
v  152.3272 69.7112 -2.9996
v  48.0000 0.0000 -4.9996
v  52.4000 0.0000 -4.9996
v  126.1705 170.6588 -2.9996
v  115.1050 155.7002 -2.9996
v  102.7668 155.7002 -2.9996
v  52.4000 170.6588 -2.9996
v  203.6000 170.6588 -2.9996
v  152.3272 155.7002 -2.9996
v  140.3178 155.7002 -2.9996
v  130.0532 170.6588 -2.9996
v  208.0000 0.0000 -4.9996
v  203.6000 0.0000 -4.9996
v  130.0532 170.6588 -3.9996
v  130.0532 0.0000 -3.9996
v  126.1705 0.0000 -3.9996
v  126.1705 170.6588 -3.9996
v  113.1050 153.7002 -0.9996
v  113.1050 71.7112 -0.9996
v  104.7668 71.7112 -0.9996
v  104.7668 153.7002 -0.9996
v  150.3272 153.7002 -0.9996
v  150.3272 71.7112 -0.9996
v  142.3178 71.7112 -0.9996
v  142.3178 153.7002 -0.9996
# 94 vertices

vn 1.0000 0.0000 -0.0000
vn 0.0000 1.0000 -0.0000
vn -0.0000 0.0000 -1.0000
vn 0.0000 0.0000 -1.0000
vn -0.0000 -0.0000 1.0000
vn 0.0000 -0.0000 1.0000
vn 0.0000 -1.0000 -0.0000
vn -1.0000 0.0000 -0.0000
vn -0.4472 0.8944 -0.0000
vn 0.4472 -0.8944 -0.0000
vn -0.7071 -0.0000 0.7071
vn 0.0000 -0.7071 0.7071
vn 0.7071 -0.0000 0.7071
vn 0.0000 0.7071 0.7071
vn -0.7071 0.0000 -0.7071
vn 0.0000 -0.7071 -0.7071
vn 0.7071 0.0000 -0.7071
vn 0.0000 0.7071 -0.7071
# 18 vertex normals

vt 1.0000 1.0000 0.0000
vt 0.9375 1.0000 0.0000
vt 0.9375 0.5000 0.0000
vt 1.0000 0.5000 0.0000
vt 0.5000 1.0000 0.0000
vt 0.5000 0.9374 0.0000
vt 1.0000 0.9374 0.0000
vt 0.9063 0.8438 0.0000
vt 0.5938 0.8438 0.0000
vt 0.9063 0.5000 0.0000
vt 1.0000 0.5626 0.0000
vt 0.9063 0.5626 0.0000
vt 0.5000 0.5626 0.0000
vt 0.5000 0.5000 0.0000
vt 0.5937 0.5000 0.0000
vt 0.5937 0.5626 0.0000
vt 0.5938 0.5000 0.0000
vt 0.5626 0.5000 0.0000
vt 0.5626 1.0000 0.0000
vt 0.5937 1.0000 0.0000
vt 0.9063 1.0000 0.0000
vt 0.9063 0.9374 0.0000
vt 0.5937 0.9374 0.0000
vt 1.0000 0.8438 0.0000
vt 0.9375 0.8438 0.0000
vt 0.5000 0.8438 0.0000
vt 0.5626 0.8438 0.0000
vt 0.6603 0.3333 0.0000
vt 0.6565 0.3437 0.0000
vt 0.6527 0.3333 0.0000
vt 0.5000 0.3438 0.0000
vt 0.5086 0.3333 0.0000
vt 0.6527 -0.0000 0.0000
vt 0.6311 0.1361 0.0000
vt 0.6070 0.1361 0.0000
vt 0.5086 -0.0000 0.0000
vt 0.8039 0.3333 0.0000
vt 0.8125 0.3438 0.0000
vt 0.8043 -0.0000 0.0000
vt 0.7041 0.1361 0.0000
vt 0.6807 0.1361 0.0000
vt 0.6606 -0.0000 0.0000
vt 0.5000 0.0000 0.0000
vt 0.5086 0.0000 0.0000
vt 0.6527 0.3332 0.0000
vt 0.5086 0.3332 0.0000
vt 0.6070 0.3040 0.0000
vt 0.6311 0.3040 0.0000
vt 0.8043 0.3332 0.0000
vt 0.6606 0.3332 0.0000
vt 0.6807 0.3040 0.0000
vt 0.7041 0.3040 0.0000
vt 0.8039 -0.0000 0.0000
vt 0.8125 0.0000 0.0000
vt 0.6603 -0.0000 0.0000
vt 0.6246 0.2975 0.0000
vt 0.6135 0.2975 0.0000
vt 0.6135 0.1425 0.0000
vt 0.6246 0.1425 0.0000
vt 0.6982 0.2985 0.0000
vt 0.6866 0.2985 0.0000
vt 0.6866 0.1415 0.0000
vt 0.6982 0.1415 0.0000
vt 0.5098 0.0902 0.0000
vt 0.6532 0.0902 0.0000
vt 0.6532 0.0863 0.0000
vt 0.5098 0.0863 0.0000
vt 0.5689 0.3334 0.0000
vt 0.5689 -0.0006 0.0000
vt 0.5657 -0.0006 0.0000
vt 0.5657 0.3334 0.0000
vt 0.5626 0.3334 0.0000
vt 0.6607 0.0902 0.0000
vt 0.8037 0.0902 0.0000
vt 0.8037 0.0863 0.0000
vt 0.6607 0.0863 0.0000
vt 0.5626 -0.0006 0.0000
vt 0.8040 -0.0000 0.0000
vt 0.6804 0.1361 0.0000
vt 0.7038 0.1361 0.0000
vt 0.8040 0.3332 0.0000
vt 0.7038 0.3040 0.0000
vt 0.6804 0.3040 0.0000
vt 0.6603 0.3332 0.0000
vt 0.6979 0.2985 0.0000
vt 0.6979 0.1415 0.0000
vt 0.6864 0.1415 0.0000
vt 0.6864 0.2985 0.0000
vt 0.5098 0.1019 0.0000
vt 0.5098 0.1057 0.0000
vt 0.6532 0.1057 0.0000
vt 0.6532 0.1019 0.0000
vt 0.5875 0.3334 0.0000
vt 0.5937 0.3334 0.0000
vt 0.5906 0.3334 0.0000
vt 0.5906 -0.0006 0.0000
vt 0.5875 -0.0006 0.0000
vt 0.6607 0.1019 0.0000
vt 0.6607 0.1057 0.0000
vt 0.8037 0.1057 0.0000
vt 0.8037 0.1019 0.0000
vt 0.5937 -0.0006 0.0000
# 102 texture coords

g concrete_door
s 4
f 1/1/1 2/2/1 3/3/1 4/4/1 
s 2
f 5/5/2 6/6/2 2/7/2 1/1/2 
s 1
f 1/1/3 7/8/3 8/9/4 5/5/4 
f 3/4/5 2/1/5 9/8/5 10/10/6 
s 2
f 4/4/7 3/11/7 10/12/7 11/10/7 
f 12/13/7 13/14/7 14/15/7 15/16/7 
s 1
f 13/14/4 5/5/4 8/9/4 14/17/4 
f 2/1/5 6/5/6 16/9/6 9/8/5 
s 4
f 13/14/8 12/18/8 6/19/8 5/5/8 
s 1
f 12/14/6 15/17/6 16/9/6 6/5/6 
f 4/4/3 11/10/4 7/8/3 1/1/3 
s 2
f 8/20/7 7/21/7 9/22/7 16/23/7 
s 4
f 7/24/8 11/4/8 10/3/8 9/25/8 
f 14/14/1 8/26/1 16/27/1 15/18/1 
s 1
f 17/28/6 18/29/6 19/30/6 
f 20/31/6 21/32/6 19/30/6 18/29/6 
f 22/33/5 23/34/5 24/35/5 25/36/5 
f 18/29/6 17/28/6 26/37/5 27/38/5 
f 28/39/6 29/40/6 30/41/6 31/42/6 
f 32/43/6 33/44/6 21/32/6 20/31/6 
f 34/45/6 35/46/5 36/47/5 37/48/6 
f 38/49/6 39/50/5 40/51/5 41/52/6 
f 36/47/5 35/46/5 25/36/5 24/35/5 
f 27/38/5 26/37/5 42/53/5 43/54/6 
f 40/51/5 39/50/5 31/42/6 30/41/6 
f 44/28/6 45/30/6 46/33/6 47/55/6 
f 34/45/6 37/48/6 23/34/5 22/33/5 
f 38/49/6 41/52/6 29/40/6 28/39/6 
s 7
f 48/56/6 49/57/6 50/58/6 51/59/6 
f 52/60/6 53/61/6 54/62/6 55/63/6 
s 2
f 35/64/7 34/65/7 19/66/7 21/67/7 
s 4
f 34/68/8 22/69/8 46/70/8 45/71/9 
f 34/68/8 45/71/9 19/72/1 
f 39/68/1 17/72/1 44/71/10 31/69/1 
f 31/69/1 44/71/10 47/70/1 
s 2
f 39/73/7 38/74/7 26/75/7 17/76/7 
s 4
f 38/68/8 28/69/8 42/77/8 26/72/8 
f 25/69/1 35/68/1 21/72/1 33/77/1 
s 2
f 44/28/7 17/28/7 19/30/7 45/30/7 
s off
f 23/34/11 37/48/11 48/56/11 51/59/11 
f 37/48/12 36/47/12 49/57/12 48/56/12 
f 36/47/13 24/35/13 50/58/13 49/57/13 
f 24/35/14 23/34/14 51/59/14 50/58/14 
f 29/40/11 41/52/11 52/60/11 55/63/11 
f 41/52/12 40/51/12 53/61/12 52/60/12 
f 40/51/13 30/41/13 54/62/13 53/61/13 
f 30/41/14 29/40/14 55/63/14 54/62/14 
s 1
f 56/28/4 57/30/4 58/29/4 
f 57/30/4 59/32/3 60/31/3 58/29/4 
f 61/33/3 62/36/3 63/35/3 64/34/4 
f 65/37/4 56/28/4 58/29/4 66/38/4 
f 67/78/4 68/55/4 69/79/3 70/80/4 
f 71/43/3 60/31/3 59/32/3 72/44/4 
f 73/45/4 74/48/4 75/47/3 76/46/3 
f 77/81/4 78/82/4 79/83/3 80/84/3 
f 75/47/3 63/35/3 62/36/3 76/46/3 
f 66/38/4 81/54/4 82/53/4 65/37/4 
f 79/83/3 69/79/3 68/55/4 80/84/3 
f 83/28/4 84/55/4 85/33/4 86/30/4 
f 73/45/4 61/33/3 64/34/4 74/48/4 
f 77/81/4 67/78/4 70/80/4 78/82/4 
s 7
f 87/56/4 88/59/4 89/58/4 90/57/4 
f 91/85/4 92/86/4 93/87/4 94/88/4 
s 2
f 76/89/7 59/90/7 57/91/7 73/92/7 
s 4
f 73/93/8 57/94/1 86/95/9 85/96/8 
f 73/93/8 85/96/8 61/97/8 
f 68/97/1 84/96/1 83/95/10 80/93/1 
f 83/95/10 56/94/1 80/93/1 
s 2
f 80/98/7 56/99/7 65/100/7 77/101/7 
s 4
f 77/93/8 65/94/8 82/102/8 67/97/8 
f 62/97/1 72/102/1 59/94/1 76/93/1 
s 2
f 83/28/7 86/30/7 57/30/7 56/28/7 
s off
f 64/34/15 88/59/15 87/56/15 74/48/15 
f 74/48/16 87/56/16 90/57/16 75/47/16 
f 75/47/17 90/57/17 89/58/17 63/35/17 
f 63/35/18 89/58/18 88/59/18 64/34/18 
f 70/80/15 92/86/15 91/85/15 78/82/15 
f 78/82/16 91/85/16 94/88/16 79/83/16 
f 79/83/17 94/88/17 93/87/17 69/79/17 
f 69/79/18 93/87/18 92/86/18 70/80/18 
# 74 polygons - 6 triangles

