# 3ds Max Wavefront OBJ Exporter v0.97b - (c)2007 guruware
# File Created: 20.04.2013 20:49:18

#
# object pillar_brick_3
#

v  0.0000 0.0000 -32.0000
v  0.0000 128.0000 -32.0000
v  64.0000 128.0000 -32.0000
v  64.0000 0.0000 -32.0000
v  64.0000 128.0000 32.0000
v  64.0000 0.0000 32.0000
v  0.0000 0.0000 32.0000
v  0.0000 128.0000 32.0000
# 8 vertices

vn -0.0000 -0.0000 -1.0000
vn 1.0000 0.0000 -0.0000
vn 0.0000 -1.0000 -0.0000
vn -1.0000 0.0000 -0.0000
vn 0.0000 1.0000 -0.0000
vn 0.0000 0.0000 1.0000
# 6 vertex normals

vt 0.3125 0.6250 0.0000
vt 0.3125 0.8750 0.0000
vt 0.1875 0.8750 0.0000
vt 0.1875 0.6250 0.0000
vt 0.0621 0.8750 0.0000
vt 0.0621 0.6250 0.0000
vt 0.1875 0.6254 0.0000
vt 0.3125 0.6254 0.0000
vt 0.3125 0.5000 0.0000
vt 0.1875 0.5000 0.0000
vt 0.4379 0.6250 0.0000
vt 0.4379 0.8750 0.0000
vt 0.3125 0.8746 0.0000
vt 0.1875 0.8746 0.0000
vt 0.1875 1.0000 0.0000
vt 0.3125 1.0000 0.0000
# 16 texture coords

g pillar_brick_3
s 1
f 1/1/1 2/2/1 3/3/1 4/4/1 
s 2
f 5/5/2 6/6/2 4/4/2 3/3/2 
s 4
f 6/7/3 7/8/3 1/9/3 4/10/3 
s 2
f 7/11/4 8/12/4 2/2/4 1/1/4 
s 4
f 8/13/5 5/14/5 3/15/5 2/16/5 
s 1
f 8/2/6 7/1/6 6/4/6 5/3/6 
# 6 polygons

