# 3ds Max Wavefront OBJ Exporter v0.97b - (c)2007 guruware
# File Created: 20.04.2013 20:48:58

#
# object pillar_brick_2
#

v  64.0000 0.0000 -32.0000
v  64.0000 192.0000 -32.0000
v  64.0000 192.0000 32.0000
v  64.0000 0.0000 32.0000
v  0.0000 192.0000 32.0000
v  0.0000 0.0000 32.0000
v  0.0000 0.0000 -32.0000
v  0.0000 192.0000 -32.0000
# 8 vertices

vn 1.0000 0.0000 -0.0000
vn -0.0000 -0.0000 1.0000
vn 0.0000 0.0000 1.0000
vn 0.0000 -1.0000 -0.0000
vn -0.0000 -0.0000 -1.0000
vn -0.0000 0.0000 -1.0000
vn 0.0000 -0.0000 -1.0000
vn 0.0000 1.0000 -0.0000
vn -1.0000 0.0000 -0.0000
# 9 vertex normals

vt 0.3125 0.5625 0.0000
vt 0.3125 0.9375 0.0000
vt 0.1875 0.9375 0.0000
vt 0.1875 0.5625 0.0000
vt 0.0621 0.9375 0.0000
vt 0.0621 0.5625 0.0000
vt 0.1875 0.6254 0.0000
vt 0.3125 0.6254 0.0000
vt 0.3125 0.5000 0.0000
vt 0.1875 0.5000 0.0000
vt 0.4379 0.5625 0.0000
vt 0.4379 0.9375 0.0000
vt 0.3125 0.8746 0.0000
vt 0.1875 0.8746 0.0000
vt 0.1875 1.0000 0.0000
vt 0.3125 1.0000 0.0000
# 16 texture coords

g pillar_brick_2
s 1
f 1/1/1 2/2/1 3/3/1 4/4/1 
s 2
f 5/5/2 6/6/2 4/4/2 3/3/3 
s 4
f 6/7/4 7/8/4 1/9/4 4/10/4 
s 2
f 7/11/5 8/12/6 2/2/5 1/1/7 
s 4
f 8/13/8 5/14/8 3/15/8 2/16/8 
s 1
f 8/2/9 7/1/9 6/4/9 5/3/9 
# 6 polygons

