# 3ds Max Wavefront OBJ Exporter v0.97b - (c)2007 guruware
# File Created: 20.04.2013 20:48:14

#
# object wall_brick_4
#

v  256.0000 0.0000 16.0000
v  256.0000 64.0000 16.0000
v  0.0000 64.0000 16.0000
v  0.0000 0.0000 16.0000
v  0.0000 64.0000 -16.0000
v  0.0000 0.0000 -16.0000
v  256.0000 0.0000 -16.0000
v  256.0000 64.0000 -16.0000
# 8 vertices

vn 0.0000 -0.0000 1.0000
vn -1.0000 0.0000 -0.0000
vn 0.0000 -1.0000 -0.0000
vn 1.0000 0.0000 -0.0000
vn 0.0000 1.0000 -0.0000
vn 0.0000 0.0000 -1.0000
# 6 vertex normals

vt 0.5000 0.5000 0.0000
vt 0.5000 0.6250 0.0000
vt 0.0000 0.6250 0.0000
vt 0.0000 0.5000 0.0000
vt 0.0627 0.5000 0.0000
vt 0.0627 0.6250 0.0000
vt 0.0000 0.5627 0.0000
vt 0.5000 0.5627 0.0000
vt 0.4373 0.6250 0.0000
vt 0.4373 0.5000 0.0000
vt 0.5000 0.5623 0.0000
vt 0.0000 0.5623 0.0000
# 12 texture coords

g wall_brick_4
s 1
f 1/1/1 2/2/1 3/3/1 4/4/1 
s 2
f 5/3/2 6/4/2 4/5/2 3/6/2 
s 4
f 6/7/3 7/8/3 1/1/3 4/4/3 
s 2
f 7/1/4 8/2/4 2/9/4 1/10/4 
s 4
f 8/11/5 5/12/5 3/3/5 2/2/5 
s 1
f 8/2/6 7/1/6 6/4/6 5/3/6 
# 6 polygons

