# 3ds Max Wavefront OBJ Exporter v0.97b - (c)2007 guruware
# File Created: 20.04.2013 20:42:51

#
# object wall_concrete_3
#

v  128.0000 -0.0000 16.0000
v  128.0000 128.0000 16.0000
v  0.0000 128.0000 16.0000
v  0.0000 -0.0000 16.0000
v  0.0000 0.0000 -16.0000
v  128.0000 0.0000 -16.0000
v  128.0000 128.0000 -16.0000
v  0.0000 128.0000 -16.0000
# 8 vertices

vn 0.0000 -0.0000 1.0000
vn 0.0000 -1.0000 -0.0000
vn 1.0000 0.0000 -0.0000
vn 0.0000 1.0000 -0.0000
vn -1.0000 0.0000 -0.0000
vn 0.0000 0.0000 -1.0000
# 6 vertex normals

vt 0.8750 0.6563 0.0000
vt 0.8750 0.9063 0.0000
vt 0.6250 0.9063 0.0000
vt 0.6250 0.6563 0.0000
vt 0.8750 0.7189 0.0000
vt 0.6250 0.7189 0.0000
vt 0.8124 0.9063 0.0000
vt 0.8124 0.6563 0.0000
vt 0.6250 0.8436 0.0000
vt 0.8750 0.8436 0.0000
vt 0.6876 0.6563 0.0000
vt 0.6876 0.9063 0.0000
# 12 texture coords

g wall_concrete_3
s 1
f 1/1/1 2/2/1 3/3/1 4/4/1 
s 2
f 5/4/2 6/1/2 1/5/2 4/6/2 
s 4
f 6/1/3 7/2/3 2/7/3 1/8/3 
s 2
f 7/2/4 8/3/4 3/9/4 2/10/4 
s 4
f 8/3/5 5/4/5 4/11/5 3/12/5 
s 1
f 8/3/6 7/2/6 6/1/6 5/4/6 
# 6 polygons

